<svg width="20" height="20" viewBox="0 0 24 24" fill="none" xmlns="http://www.w3.org/2000/svg">
<path fill-rule="evenodd" clip-rule="evenodd" d="M12 2C6.477 2 2 6.477 2 12c0 1.89.525 3.66 1.438 5.168L2 22l4.832-1.438A9.955 9.955 0 0012 22c5.523 0 10-4.477 10-10S17.523 2 12 2zm0 18a7.96 7.96 0 01-4.086-1.125l-.293-.175-2.816.843.843-2.816-.175-.293A7.96 7.96 0 014 12c0-4.411 3.589-8 8-8s8 3.589 8 8-3.589 8-8 8zm4.242-6.058c-.233-.117-1.378-.68-1.59-.757-.212-.078-.366-.117-.52.117-.154.233-.595.757-.73.912-.136.155-.271.175-.504.058-.233-.117-.983-.363-1.872-1.157-.692-.616-1.16-1.378-1.297-1.611-.136-.233-.015-.36.102-.477.105-.105.233-.271.35-.407.117-.136.155-.233.233-.388.078-.155.039-.291-.02-.408-.058-.117-.52-1.254-.712-1.716-.187-.481-.374-.417-.52-.424-.136-.007-.291-.008-.447-.008-.155 0-.407.058-.62.291-.212.233-.816.797-.816 1.942 0 1.145.837 2.25.954 2.407.117.155 1.648 2.515 3.994 3.527.558.241.994.385 1.334.492.561.178 1.071.153 1.474.093.45-.068 1.378-.563 1.573-1.107.195-.544.195-1.009.136-1.107-.058-.097-.212-.155-.446-.272z" fill="#323539"/>
</svg>
